<svg xmlns="http://www.w3.org/2000/svg" version="1.1" xmlns:xlink="http://www.w3.org/1999/xlink" width="512" height="512" x="0" y="0" viewBox="0 0 682.667 682.667" style="enable-background:new 0 0 512 512" xml:space="preserve" class=""><g><defs><clipPath id="a" clipPathUnits="userSpaceOnUse"><path d="M0 512h512V0H0Z" fill="#3870d4" opacity="1" data-original="#000000"></path></clipPath></defs><g clip-path="url(#a)" transform="matrix(1.33333 0 0 -1.33333 0 682.667)"><path d="M0 0v-53.35" style="stroke-width:15;stroke-linecap:round;stroke-linejoin:round;stroke-miterlimit:10;stroke-dasharray:none;stroke-opacity:1" transform="translate(62.725 60.85)" fill="none" stroke="#3870d4" stroke-width="15" stroke-linecap="round" stroke-linejoin="round" stroke-miterlimit="10" stroke-dasharray="none" stroke-opacity="" data-original="#000000" opacity="1" class=""></path><path d="m0 0-.021-7.516-.007-.369c0-29.723-22.151-57.303-22.151-57.303" style="stroke-width:15;stroke-linecap:round;stroke-linejoin:round;stroke-miterlimit:10;stroke-dasharray:none;stroke-opacity:1" transform="translate(279.65 271.411)" fill="none" stroke="#3870d4" stroke-width="15" stroke-linecap="round" stroke-linejoin="round" stroke-miterlimit="10" stroke-dasharray="none" stroke-opacity="" data-original="#000000" opacity="1" class=""></path><path d="M0 0c0-11.899-9.647-21.546-21.547-21.546-11.899 0-21.547 9.647-21.547 21.546 0 11.9 9.648 21.546 21.547 21.546C-9.647 21.546 0 11.9 0 0Z" style="stroke-width:15;stroke-linecap:round;stroke-linejoin:round;stroke-miterlimit:10;stroke-dasharray:none;stroke-opacity:1" transform="translate(389.656 109.74)" fill="none" stroke="#3870d4" stroke-width="15" stroke-linecap="round" stroke-linejoin="round" stroke-miterlimit="10" stroke-dasharray="none" stroke-opacity="" data-original="#000000" opacity="1" class=""></path><path d="M0 0h115.298" style="stroke-width:15;stroke-linecap:round;stroke-linejoin:round;stroke-miterlimit:10;stroke-dasharray:none;stroke-opacity:1" transform="translate(356.576 466)" fill="none" stroke="#3870d4" stroke-width="15" stroke-linecap="round" stroke-linejoin="round" stroke-miterlimit="10" stroke-dasharray="none" stroke-opacity="" data-original="#000000" opacity="1" class=""></path><path d="M0 0h57.649" style="stroke-width:15;stroke-linecap:round;stroke-linejoin:round;stroke-miterlimit:10;stroke-dasharray:none;stroke-opacity:1" transform="translate(356.576 428.287)" fill="none" stroke="#3870d4" stroke-width="15" stroke-linecap="round" stroke-linejoin="round" stroke-miterlimit="10" stroke-dasharray="none" stroke-opacity="" data-original="#000000" opacity="1" class=""></path><path d="M0 0c-3.902-8.447-6.079-17.855-6.079-27.771l.257-32.608c.082-10.344 9.838-17.862 19.87-15.342C53.97-65.693 73.92-33.259 80.583-19.963c6.678-13.325 26.706-45.868 66.803-55.817 10.066-2.498 19.817 5.091 19.827 15.462l.033 32.547c0 36.617-29.684 66.301-66.302 66.301H60.223a66.029 66.029 0 0 1-41.515-14.602" style="stroke-width:15;stroke-linecap:round;stroke-linejoin:round;stroke-miterlimit:10;stroke-dasharray:none;stroke-opacity:1" transform="translate(96.025 370.432)" fill="none" stroke="#3870d4" stroke-width="15" stroke-linecap="round" stroke-linejoin="round" stroke-miterlimit="10" stroke-dasharray="none" stroke-opacity="" data-original="#000000" opacity="1" class=""></path><path d="m0 0 .11-13.924c.429-20.013 8.839-39.275 24.032-52.357 12.232-10.532 29.425-30.22 52.137-30.474 22.712.254 39.906 19.942 52.137 30.474 15.193 13.082 23.603 32.344 24.033 52.357l.014 14.732" style="stroke-width:15;stroke-linecap:round;stroke-linejoin:round;stroke-miterlimit:10;stroke-dasharray:none;stroke-opacity:1" transform="translate(101.612 294.89)" fill="none" stroke="#3870d4" stroke-width="15" stroke-linecap="round" stroke-linejoin="round" stroke-miterlimit="10" stroke-dasharray="none" stroke-opacity="" data-original="#000000" opacity="1" class=""></path><path d="M0 0c7.65 4.145 12.845 12.242 12.845 21.553 0 13.53-10.967 24.497-24.496 24.497-13.53 0-24.497-10.967-24.497-24.497 0-9.311 5.195-17.408 12.845-21.553" style="stroke-width:15;stroke-linecap:round;stroke-linejoin:round;stroke-miterlimit:10;stroke-dasharray:none;stroke-opacity:1" transform="translate(188.26 408.962)" fill="none" stroke="#3870d4" stroke-width="15" stroke-linecap="round" stroke-linejoin="round" stroke-miterlimit="10" stroke-dasharray="none" stroke-opacity="" data-original="#000000" opacity="1" class=""></path><path d="M0 0h-6.333c-9.705 0-17.572-7.867-17.572-17.572v-20.47c0-9.705 7.867-17.572 17.572-17.572h19.366" style="stroke-width:15;stroke-linecap:round;stroke-linejoin:round;stroke-miterlimit:10;stroke-dasharray:none;stroke-opacity:1" transform="translate(90.096 323.772)" fill="none" stroke="#3870d4" stroke-width="15" stroke-linecap="round" stroke-linejoin="round" stroke-miterlimit="10" stroke-dasharray="none" stroke-opacity="" data-original="#000000" opacity="1" class=""></path><path d="M0 0h16.801c9.705 0 17.573 7.867 17.573 17.572v20.47c0 9.705-7.868 17.572-17.573 17.572h-6.203" style="stroke-width:15;stroke-linecap:round;stroke-linejoin:round;stroke-miterlimit:10;stroke-dasharray:none;stroke-opacity:1" transform="translate(252.654 268.157)" fill="none" stroke="#3870d4" stroke-width="15" stroke-linecap="round" stroke-linejoin="round" stroke-miterlimit="10" stroke-dasharray="none" stroke-opacity="" data-original="#000000" opacity="1" class=""></path><path d="M0 0h-142.68c-10.446 0-18.914-8.468-18.914-18.914v-74.421c0-10.446 8.468-18.915 18.914-18.915h3.925a7.013 7.013 0 0 0 7.014-6.972l.221-38.002c.033-5.66 7.175-8.118 10.684-3.676l36.331 45.985a7.012 7.012 0 0 0 5.503 2.665H0c10.445 0 18.914 8.469 18.914 18.915v74.421C18.914-8.468 10.445 0 0 0Z" style="stroke-width:15;stroke-linecap:round;stroke-linejoin:round;stroke-miterlimit:10;stroke-dasharray:none;stroke-opacity:1" transform="translate(485.565 504.5)" fill="none" stroke="#3870d4" stroke-width="15" stroke-linecap="round" stroke-linejoin="round" stroke-miterlimit="10" stroke-dasharray="none" stroke-opacity="" data-original="#000000" opacity="1" class=""></path><path d="m0 0 .006-31.202a13.003 13.003 0 0 0-10.979-12.846l-42.608-6.728" style="stroke-width:15;stroke-linecap:round;stroke-linejoin:round;stroke-miterlimit:10;stroke-dasharray:none;stroke-opacity:1" transform="translate(141.512 214.513)" fill="none" stroke="#3870d4" stroke-width="15" stroke-linecap="round" stroke-linejoin="round" stroke-miterlimit="10" stroke-dasharray="none" stroke-opacity="" data-original="#000000" opacity="1" class=""></path><path d="M0 0v-28.793a13.008 13.008 0 0 1 10.922-12.84l31.245-5.076" style="stroke-width:15;stroke-linecap:round;stroke-linejoin:round;stroke-miterlimit:10;stroke-dasharray:none;stroke-opacity:1" transform="translate(211.707 212.424)" fill="none" stroke="#3870d4" stroke-width="15" stroke-linecap="round" stroke-linejoin="round" stroke-miterlimit="10" stroke-dasharray="none" stroke-opacity="" data-original="#000000" opacity="1" class=""></path><path d="M0 0c-17.39-23.879-45.499-39.449-77.265-39.61-40.154.203-74.484 25.016-88.678 60.131l-27.037-4.27c-26.505-4.185-46.595-26.141-48.415-52.912l-4.898-72.04c-.994-14.613 10.593-27.015 25.24-27.015H-13.294" style="stroke-width:15;stroke-linecap:round;stroke-linejoin:round;stroke-miterlimit:10;stroke-dasharray:none;stroke-opacity:1" transform="translate(253.874 143.216)" fill="none" stroke="#3870d4" stroke-width="15" stroke-linecap="round" stroke-linejoin="round" stroke-miterlimit="10" stroke-dasharray="none" stroke-opacity="" data-original="#000000" opacity="1" class=""></path><path d="M0 0h165.348c10.954 0 19.834-8.88 19.834-19.834a8.138 8.138 0 0 0-8.138-8.137H-78.718a8.137 8.137 0 0 0-8.137 8.137C-86.855-8.88-77.975 0-67.021 0h37.023" style="stroke-width:15;stroke-linecap:round;stroke-linejoin:round;stroke-miterlimit:10;stroke-dasharray:none;stroke-opacity:1" transform="translate(319.298 35.471)" fill="none" stroke="#3870d4" stroke-width="15" stroke-linecap="round" stroke-linejoin="round" stroke-miterlimit="10" stroke-dasharray="none" stroke-opacity="" data-original="#000000" opacity="1" class=""></path><path d="M0 0v131.964c0 9.154-7.421 16.575-16.575 16.575h-195.321c-9.154 0-16.575-7.421-16.575-16.575V0" style="stroke-width:15;stroke-linecap:round;stroke-linejoin:round;stroke-miterlimit:10;stroke-dasharray:none;stroke-opacity:1" transform="translate(482.345 35.471)" fill="none" stroke="#3870d4" stroke-width="15" stroke-linecap="round" stroke-linejoin="round" stroke-miterlimit="10" stroke-dasharray="none" stroke-opacity="" data-original="#000000" opacity="1" class=""></path></g></g></svg>