<svg xmlns="http://www.w3.org/2000/svg" version="1.1" xmlns:xlink="http://www.w3.org/1999/xlink" width="512" height="512" x="0" y="0" viewBox="0 0 512 512" style="enable-background:new 0 0 512 512" xml:space="preserve" class=""><g><path d="M183.136 90.152V49.914h-72.652c-5.523 0-10 4.477-10 10v30.239h82.652zM328.864 421.848v42.414h71.565c5.523 0 10-4.477 10-10v-32.414h-81.565zM328.864 421.848h154.217c5.523 0 10-4.477 10-10V17.5c0-5.523-4.477-10-10-10H193.136c-5.523 0-10 4.477-10 10v72.652" style="stroke-width:15;stroke-linecap:round;stroke-linejoin:round;stroke-miterlimit:10;" fill="none" stroke="#3870d4" stroke-width="15" stroke-linecap="round" stroke-linejoin="round" stroke-miterlimit="10" data-original="#000000" class="" opacity="1"></path><path d="M18.919 431v63.5c0 5.523 4.477 10 10 10h289.945c5.523 0 10-4.477 10-10V100.152c0-5.523-4.477-10-10-10H260M225 90.152H28.919c-5.523 0-10 4.477-10 10V396M139.363 186.003h139.203M139.363 217.541h86.73M253.281 217.541h25.285" style="stroke-width:15;stroke-linecap:round;stroke-linejoin:round;stroke-miterlimit:10;" fill="none" stroke="#3870d4" stroke-width="15" stroke-linecap="round" stroke-linejoin="round" stroke-miterlimit="10" data-original="#000000" class="" opacity="1"></path><path d="M104.281 297.202H72.217a3 3 0 0 1-3-3v-32.064a3 3 0 0 1 3-3h32.063a3 3 0 0 1 3 3v32.064a2.999 2.999 0 0 1-2.999 3zM139.363 262.401h139.203M139.363 293.94h25.828M192.38 293.94h86.186M104.281 373.601H72.217a3 3 0 0 1-3-3v-32.064a3 3 0 0 1 3-3h32.063a3 3 0 0 1 3 3v32.064a2.999 2.999 0 0 1-2.999 3zM139.363 338.8h139.203M139.363 370.339h139.203M104.281 450H72.217a3 3 0 0 1-3-3v-32.064a3 3 0 0 1 3-3h32.063a3 3 0 0 1 3 3V447a2.999 2.999 0 0 1-2.999 3zM139.363 415.199h139.203M139.363 446.737h51.929M278.566 446.737H218.48M66.226 193.887l18.488 18.488 29.364-39.151M366.259 191.292h41.995M366.259 226.093h87.002M366.259 260.894h87.002M366.259 295.695h87.002M366.259 330.496H383M408.013 330.496h45.248M366.259 365.297h87.002M361.253 114c5.807 21.35 25.318 37.054 48.507 37.054 27.767 0 50.276-22.509 50.276-50.276s-22.509-50.276-50.276-50.276c-19.965 0-37.212 11.638-45.327 28.499" style="stroke-width:15;stroke-linecap:round;stroke-linejoin:round;stroke-miterlimit:10;" fill="none" stroke="#3870d4" stroke-width="15" stroke-linecap="round" stroke-linejoin="round" stroke-miterlimit="10" data-original="#000000" class="" opacity="1"></path><path d="M409.76 100.777v50.276c27.767 0 50.276-22.51 50.276-50.276H409.76zM328.864 50.501h-105.49M433.267 191.292h19.994M69.217 139H210M271 139h7.566M237.434 139H245" style="stroke-width:15;stroke-linecap:round;stroke-linejoin:round;stroke-miterlimit:10;" fill="none" stroke="#3870d4" stroke-width="15" stroke-linecap="round" stroke-linejoin="round" stroke-miterlimit="10" data-original="#000000" class="" opacity="1"></path></g></svg>