<svg xmlns="http://www.w3.org/2000/svg" version="1.1" xmlns:xlink="http://www.w3.org/1999/xlink" width="512" height="512" x="0" y="0" viewBox="0 0 512 512" style="enable-background:new 0 0 512 512" xml:space="preserve" class=""><g><path d="M239.019 274.741c11.07 4.541 22.401 4.348 33.962 0" style="stroke-width:15;stroke-linecap:round;stroke-linejoin:round;stroke-miterlimit:10;" fill="none" stroke="#3870d4" stroke-width="15" stroke-linecap="round" stroke-linejoin="round" stroke-miterlimit="10" data-original="#000000" opacity="1" class=""></path><path d="M289.137 130.727c-17.382 13.339-52.508 34.999-101.183 39.006-1.725.142-3.211 1.285-3.748 2.93a77.373 77.373 0 0 0-3.807 24.05v53.018c0 42.295 33.847 76.583 75.601 76.583 41.753 0 75.601-34.287 75.601-76.583v-53.018c0-28.303-15.159-53.015-37.698-66.271a4.277 4.277 0 0 0-4.766.285zM220.228 215.379v9.866M291.772 215.379v9.866M179.544 197.883h-4.543c-13.953 0-25.264 11.311-25.264 25.264s11.311 25.264 25.264 25.264h4.543M332.456 248.412h4.543c13.953 0 25.264-11.311 25.264-25.264s-11.311-25.264-25.264-25.264h-4.543M188.621 346.195l-63.618 14.358c-14.75 3.329-25.563 15.947-26.595 31.032l-3.657 51.48M417.249 443.065l-3.659-51.499c-1.031-15.076-11.833-27.689-26.571-31.027l-63.628-14.409M161.124 441.77v42.02M350.876 483.79v-42.777" style="stroke-width:15;stroke-linecap:round;stroke-linejoin:round;stroke-miterlimit:10;" fill="none" stroke="#3870d4" stroke-width="15" stroke-linecap="round" stroke-linejoin="round" stroke-miterlimit="10" data-original="#000000" opacity="1" class=""></path><path d="M198.922 382.861c-5.68-9.767-8.933-21.12-8.933-33.232v-3.742l19.926-4.497a5 5 0 0 0 3.899-4.877v-22.115M298.568 314.2v22.315a4.998 4.998 0 0 0 3.896 4.876l19.93 4.513v3.724c0 36.562-29.64 66.202-66.202 66.202h0c-12.225 0-23.676-3.314-33.504-9.092M347.146 136.754v-4.061c0-12.745-10.332-23.077-23.077-23.077h0a4.276 4.276 0 0 1-4.276-4.276v-2.762c0-12.745-10.332-23.077-23.077-23.077H194.784c-16.53 0-29.93 13.4-29.93 29.93v87.95M347.146 197.871V169.44" style="stroke-width:15;stroke-linecap:round;stroke-linejoin:round;stroke-miterlimit:10;" fill="none" stroke="#3870d4" stroke-width="15" stroke-linecap="round" stroke-linejoin="round" stroke-miterlimit="10" data-original="#000000" opacity="1" class=""></path><path d="M70.36 90.799C31.258 134.707 7.5 192.579 7.5 256c0 137.243 111.257 248.5 248.5 248.5S504.5 393.243 504.5 256 393.243 7.5 256 7.5c-62.023 0-118.738 22.722-162.277 60.297" style="stroke-width:15;stroke-linecap:round;stroke-linejoin:round;stroke-miterlimit:10;" fill="none" stroke="#3870d4" stroke-width="15" stroke-linecap="round" stroke-linejoin="round" stroke-miterlimit="10" data-original="#000000" opacity="1" class=""></path></g></svg>