<svg xmlns="http://www.w3.org/2000/svg" version="1.1" xmlns:xlink="http://www.w3.org/1999/xlink" width="512" height="512" x="0" y="0" viewBox="0 0 512 512" style="enable-background:new 0 0 512 512" xml:space="preserve" class=""><g><path d="M101.134 349.625H19.501C8.749 349.625 0 358.373 0 369.126v81.633c0 10.753 8.749 19.501 19.501 19.501h81.633c10.753 0 19.501-8.749 19.501-19.501v-81.633c0-10.753-8.748-19.501-19.501-19.501zm4.5 101.134c0 2.439-2.061 4.5-4.5 4.5H19.501c-2.439 0-4.5-2.061-4.5-4.5v-81.633c0-2.439 2.061-4.5 4.5-4.5h81.633c2.439 0 4.5 2.061 4.5 4.5v81.633zM482.831 207.263H213.78c-16.084 0-29.169 13.085-29.169 29.169v62.298c0 16.084 13.085 29.169 29.169 29.169h269.051c16.084 0 29.169-13.085 29.169-29.169v-62.298c0-16.084-13.086-29.169-29.169-29.169zm14.168 91.467c0 7.813-6.355 14.168-14.168 14.168H213.78c-7.813 0-14.168-6.355-14.168-14.168v-62.298c0-7.812 6.355-14.168 14.168-14.168h269.051c7.813 0 14.168 6.355 14.168 14.168v62.298zM228.249 125.22a7.5 7.5 0 0 0 7.5 7.5h225.113a7.5 7.5 0 0 0 0-15H235.749a7.5 7.5 0 0 0-7.5 7.5z" fill="#ffffff" opacity="1" data-original="#000000" class=""></path><path d="M460.861 260.081H235.749a7.5 7.5 0 0 0-7.5 7.5 7.5 7.5 0 0 0 7.5 7.5h225.113a7.5 7.5 0 1 0-.001-15zM468.361 409.942a7.5 7.5 0 0 0-7.5-7.5H235.749c-4.142 0-7.5 3.357-7.5 7.5s3.358 7.5 7.5 7.5h225.113a7.499 7.499 0 0 0 7.499-7.5zM162.859 190.23c-10.706-9.165-26.872-7.911-36.035 2.796l-17.47 20.409a28.985 28.985 0 0 0-17.887-6.173H29.169C13.085 207.263 0 220.348 0 236.432v62.298c0 16.084 13.085 29.169 29.169 29.169h62.297c16.084 0 29.169-13.085 29.169-29.169v-19.869l45.019-52.593c4.439-5.186 6.594-11.791 6.065-18.598-.528-6.806-3.674-12.999-8.86-17.44zm-57.224 108.5c-.001 7.813-6.356 14.168-14.169 14.168H29.169c-7.812 0-14.168-6.355-14.168-14.168v-62.298c0-7.812 6.355-14.168 14.168-14.168 67.693 0 65.532-.868 70.412 2.587l-16.686 19.494c-5.284-6.868-5.71-7.548-7.482-9.243-15.104-14.443-40.299-5.5-42.997 15.179-.883 6.77.924 13.478 5.086 18.888l24.078 31.3a25.768 25.768 0 0 0 3.963 4.115c4.752 3.942 10.748 5.851 15.636 5.851 13.875 0 19.268-7.99 24.455-14.05v2.345zm48.623-82.218-64.403 75.24c-4.341 5.07-12.292 4.894-16.386-.429l-24.078-31.301c-7.11-9.237 3.9-21.424 13.813-15.466 2.306 1.386 2.392 1.906 13.435 16.261 2.889 3.755 8.532 3.939 11.643.304l27.034-31.581.003-.005 22.899-26.753c3.786-4.421 10.462-4.938 14.885-1.155a10.49 10.49 0 0 1 3.66 7.204 10.481 10.481 0 0 1-2.505 7.681zM29.169 185.537h62.297c16.084 0 29.169-13.085 29.169-29.169V136.5l45.019-52.593c9.164-10.706 7.911-26.872-2.795-36.036-10.707-9.165-26.871-7.91-36.036 2.796l-17.47 20.409a28.981 28.981 0 0 0-17.887-6.173H29.169C13.085 64.903 0 77.987 0 94.071v62.297c0 16.084 13.085 29.169 29.169 29.169zM138.218 60.421c3.786-4.422 10.462-4.94 14.885-1.156 4.421 3.786 4.939 10.464 1.154 14.886L89.855 149.39c-4.314 5.04-12.268 4.926-16.386-.428l-24.077-31.3c-5.554-7.218.068-17.717 9.253-16.938 5.91.501 7.122 3.598 17.995 17.731 2.94 3.821 8.596 3.865 11.643.304 5.48-6.402 44.865-52.413 49.935-58.338zM15.001 94.071c0-7.813 6.355-14.168 14.168-14.168 67.693 0 65.532-.868 70.413 2.587l-16.687 19.494c-5.229-6.798-5.799-7.708-7.94-9.659-15.244-13.88-39.875-4.82-42.539 15.594-.883 6.77.924 13.478 5.086 18.888l24.077 31.299c9.98 12.974 29.225 13.24 39.672 1.037l4.382-5.12v2.344c0 7.813-6.355 14.168-14.168 14.168H29.169c-7.812 0-14.168-6.355-14.168-14.168V94.071zM482.831 64.903H365.806a7.5 7.5 0 0 0 0 15h117.025c7.813 0 14.168 6.355 14.168 14.168v62.297c0 7.813-6.355 14.168-14.168 14.168H213.78c-7.813 0-14.168-6.355-14.168-14.168V94.071c0-7.813 6.355-14.168 14.168-14.168h117.025a7.5 7.5 0 0 0 0-15H213.78c-16.084 0-29.169 13.085-29.169 29.169v62.297c0 16.084 13.085 29.169 29.169 29.169h269.051c16.084 0 29.169-13.085 29.169-29.169V94.071c0-16.084-13.086-29.168-29.169-29.168z" fill="#ffffff" opacity="1" data-original="#000000" class=""></path><path d="M482.831 349.625H213.78c-16.084 0-29.169 13.085-29.169 29.169v62.297c0 16.084 13.085 29.17 29.169 29.17h117.025c4.142 0 7.5-3.357 7.5-7.5s-3.358-7.5-7.5-7.5H213.78c-7.813 0-14.168-6.355-14.168-14.169v-62.297c0-7.813 6.355-14.168 14.168-14.168h269.051c7.813 0 14.168 6.355 14.168 14.168v62.297c0 7.813-6.355 14.169-14.168 14.169H365.806c-4.142 0-7.5 3.357-7.5 7.5s3.358 7.5 7.5 7.5h117.025c16.084 0 29.169-13.086 29.169-29.17v-62.297c0-16.084-13.086-29.169-29.169-29.169z" fill="#ffffff" opacity="1" data-original="#000000" class=""></path></g></svg>