<svg xmlns="http://www.w3.org/2000/svg" version="1.1" xmlns:xlink="http://www.w3.org/1999/xlink" width="512" height="512" x="0" y="0" viewBox="0 0 512 512" style="enable-background:new 0 0 512 512" xml:space="preserve" class=""><g><path d="M158.165 17.983h-99.27c-8.284 0-15 6.716-15 15V126M427.434 295.132V32.983c0-8.284-6.716-15-15-15h-99.269M43.895 161v328.5c0 8.284 6.716 15 15 15h353.539c8.284 0 15-6.716 15-15v-54.427" style="stroke-width:15;stroke-linecap:round;stroke-linejoin:round;stroke-miterlimit:10;" fill="none" stroke="#ffffff" stroke-width="15" stroke-linecap="round" stroke-linejoin="round" stroke-miterlimit="10" data-original="#000000" opacity="1" class=""></path><path d="M158.165 47.261H78.173a5 5 0 0 0-5 5v417.961a5 5 0 0 0 5 5H298M398.156 285.275V52.261a5 5 0 0 0-5-5h-79.991M333 475.222h60.156a5 5 0 0 0 5-5v-25.293M188.665 39.25h3.357M279.307 39.25h3.358" style="stroke-width:15;stroke-linecap:round;stroke-linejoin:round;stroke-miterlimit:10;" fill="none" stroke="#ffffff" stroke-width="15" stroke-linecap="round" stroke-linejoin="round" stroke-miterlimit="10" data-original="#000000" opacity="1" class=""></path><path d="m329.338 101.774 6.445 13.06a4.997 4.997 0 0 0 3.765 2.735l14.412 2.094c4.101.596 5.739 5.636 2.771 8.528l-10.429 10.166a5.003 5.003 0 0 0-1.438 4.426l2.462 14.354c.701 4.085-3.587 7.199-7.255 5.271l-12.891-6.777a4.998 4.998 0 0 0-4.653 0l-12.891 6.777c-3.668 1.928-7.955-1.186-7.255-5.271l2.462-14.354a5.003 5.003 0 0 0-1.438-4.426l-10.429-10.166c-2.968-2.893-1.33-7.933 2.771-8.528l14.412-2.094a5 5 0 0 0 3.765-2.735l6.445-13.06c1.835-3.716 7.135-3.716 8.969 0zM180.415 209h170M180.415 262h24.25M230.665 262h119.75M180.415 315h144.109M180.415 368h126.678" style="stroke-width:15;stroke-linecap:round;stroke-linejoin:round;stroke-miterlimit:10;" fill="none" stroke="#ffffff" stroke-width="15" stroke-linecap="round" stroke-linejoin="round" stroke-miterlimit="10" data-original="#000000" opacity="1" class=""></path><circle cx="135.915" cy="209" r="15" style="stroke-width:15;stroke-linecap:round;stroke-linejoin:round;stroke-miterlimit:10;" fill="none" stroke="#ffffff" stroke-width="15" stroke-linecap="round" stroke-linejoin="round" stroke-miterlimit="10" data-original="#000000" opacity="1" class=""></circle><circle cx="135.915" cy="262" r="15" style="stroke-width:15;stroke-linecap:round;stroke-linejoin:round;stroke-miterlimit:10;" fill="none" stroke="#ffffff" stroke-width="15" stroke-linecap="round" stroke-linejoin="round" stroke-miterlimit="10" data-original="#000000" opacity="1" class=""></circle><circle cx="135.915" cy="315" r="15" style="stroke-width:15;stroke-linecap:round;stroke-linejoin:round;stroke-miterlimit:10;" fill="none" stroke="#ffffff" stroke-width="15" stroke-linecap="round" stroke-linejoin="round" stroke-miterlimit="10" data-original="#000000" opacity="1" class=""></circle><circle cx="135.915" cy="368" r="15" style="stroke-width:15;stroke-linecap:round;stroke-linejoin:round;stroke-miterlimit:10;" fill="none" stroke="#ffffff" stroke-width="15" stroke-linecap="round" stroke-linejoin="round" stroke-miterlimit="10" data-original="#000000" opacity="1" class=""></circle><circle cx="135.915" cy="421" r="15" style="stroke-width:15;stroke-linecap:round;stroke-linejoin:round;stroke-miterlimit:10;" fill="none" stroke="#ffffff" stroke-width="15" stroke-linecap="round" stroke-linejoin="round" stroke-miterlimit="10" data-original="#000000" opacity="1" class=""></circle><path d="M180.415 421h149.19" style="stroke-width:15;stroke-linecap:round;stroke-linejoin:round;stroke-miterlimit:10;" fill="none" stroke="#ffffff" stroke-width="15" stroke-linecap="round" stroke-linejoin="round" stroke-miterlimit="10" data-original="#000000" opacity="1" class=""></path><circle cx="387.562" cy="365.102" r="80.542" style="stroke-width:15;stroke-linecap:round;stroke-linejoin:round;stroke-miterlimit:10;" fill="none" stroke="#ffffff" stroke-width="15" stroke-linecap="round" stroke-linejoin="round" stroke-miterlimit="10" data-original="#000000" opacity="1" class=""></circle><path d="m347.749 361.214 30.463 34.829 49.164-55.645M228 71h75.165c5.523 0 10-4.477 10-10V17.5c0-5.523-4.477-10-10-10h-135c-5.523 0-10 4.477-10 10V61c0 5.523 4.477 10 10 10H193M240.148 101.774l6.445 13.06a4.997 4.997 0 0 0 3.765 2.735l14.412 2.094c4.101.596 5.739 5.636 2.771 8.528l-10.429 10.166a5.003 5.003 0 0 0-1.438 4.426l2.462 14.354c.701 4.085-3.587 7.199-7.255 5.271l-12.891-6.777a4.998 4.998 0 0 0-4.653 0l-12.891 6.777c-3.668 1.928-7.955-1.186-7.255-5.271l2.462-14.354a5.003 5.003 0 0 0-1.438-4.426l-10.429-10.166c-2.968-2.893-1.33-7.933 2.771-8.528l14.412-2.094a5 5 0 0 0 3.765-2.735l6.445-13.06c1.836-3.716 7.135-3.716 8.969 0zM150.959 101.774l6.445 13.06a4.997 4.997 0 0 0 3.765 2.735l14.412 2.094c4.101.596 5.739 5.636 2.771 8.528l-10.429 10.166a5.003 5.003 0 0 0-1.438 4.426l2.462 14.354c.701 4.085-3.587 7.199-7.255 5.271l-12.891-6.777a4.998 4.998 0 0 0-4.653 0l-12.891 6.777c-3.668 1.928-7.955-1.186-7.255-5.271l2.462-14.354a5.003 5.003 0 0 0-1.438-4.426l-10.429-10.166c-2.968-2.893-1.33-7.933 2.771-8.528l14.412-2.094a5 5 0 0 0 3.765-2.735l6.445-13.06c1.836-3.716 7.135-3.716 8.969 0z" style="stroke-width:15;stroke-linecap:round;stroke-linejoin:round;stroke-miterlimit:10;" fill="none" stroke="#ffffff" stroke-width="15" stroke-linecap="round" stroke-linejoin="round" stroke-miterlimit="10" data-original="#000000" opacity="1" class=""></path></g></svg>