<svg xmlns="http://www.w3.org/2000/svg" version="1.1" xmlns:xlink="http://www.w3.org/1999/xlink" width="512" height="512" x="0" y="0" viewBox="0 0 24 24" style="enable-background:new 0 0 512 512" xml:space="preserve" class=""><g><path d="M18 2c2.206 0 4 1.794 4 4v12c0 2.206-1.794 4-4 4H6c-2.206 0-4-1.794-4-4V6c0-2.206 1.794-4 4-4zm0-2H6a6 6 0 0 0-6 6v12a6 6 0 0 0 6 6h12a6 6 0 0 0 6-6V6a6 6 0 0 0-6-6z" fill="#3870d4" opacity="1" data-original="#000000" class=""></path><path d="m13.414 12 2.828-2.828a.999.999 0 1 0-1.414-1.414L12 10.586 9.171 7.757a.999.999 0 1 0-1.414 1.414L10.586 12l-2.828 2.828a.999.999 0 1 0 1.414 1.414L12 13.414l2.828 2.828a.997.997 0 0 0 1.414 0 .999.999 0 0 0 0-1.414z" fill="#3870d4" opacity="1" data-original="#000000" class=""></path></g></svg>