<svg width="28" height="28" viewBox="0 0 28 28" fill="none" xmlns="http://www.w3.org/2000/svg">
<path d="M26.211 11.2826C25.4571 10.5286 24.9284 9.96615 24.6732 9.68099C24.6263 9.22005 24.556 8.26302 24.556 7.28646C24.556 5.16797 22.8321 3.44401 20.7136 3.44401C19.6485 3.44401 18.8763 3.41927 18.4935 3.39844C18.1367 3.10807 17.4102 2.48177 16.7175 1.78906C15.2696 0.341146 12.7311 0.341146 11.2819 1.78906C10.5287 2.54297 9.96552 3.07161 9.67971 3.32682C9.22268 3.3737 8.2676 3.44401 7.28583 3.44401C5.16799 3.44401 3.44468 5.16667 3.44468 7.28516C3.44468 8.35156 3.42059 9.1224 3.39846 9.50391C3.1094 9.86068 2.48309 10.5872 1.78908 11.2826C1.06578 12.0065 0.666687 12.9714 0.666687 14C0.666687 15.0286 1.06578 15.9935 1.78843 16.7174C2.54364 17.4727 3.07164 18.0352 3.32619 18.3203C3.37372 18.7786 3.44468 19.7357 3.44468 20.7135C3.44468 22.832 5.16669 24.5547 7.28387 24.5547C8.34963 24.5547 9.12111 24.5794 9.50393 24.6003C9.862 24.8919 10.5912 25.5195 11.2826 26.2109C12.0065 26.9349 12.9714 27.3333 14 27.3333C15.0287 27.3333 15.9935 26.9349 16.7175 26.2109C17.4727 25.4557 18.0365 24.9271 18.3216 24.6732C18.7787 24.6263 19.7357 24.5547 20.7162 24.5547C22.8334 24.5547 24.556 22.832 24.556 20.7135C24.556 19.6471 24.5807 18.8763 24.6016 18.4935C24.8919 18.1367 25.5169 17.4115 26.211 16.7174C26.9349 15.9935 27.3334 15.0286 27.3334 14C27.3334 12.9714 26.9349 12.0065 26.211 11.2826Z" fill="url(#paint0_linear_3_336)"/>
<path d="M12 18.6666C11.6589 18.6666 11.3177 18.5364 11.0573 18.276L8.39062 15.6094C7.86979 15.0885 7.86979 14.2448 8.39062 13.7239C8.91146 13.2031 9.75521 13.2031 10.276 13.7239L12 15.4479L17.724 9.72394C18.2448 9.2031 19.0885 9.2031 19.6094 9.72394C20.1302 10.2448 20.1302 11.0885 19.6094 11.6094L12.9427 18.276C12.6823 18.5364 12.3411 18.6666 12 18.6666Z" fill="#F5F5F5"/>
<defs>
<linearGradient id="paint0_linear_3_336" x1="0.666687" y1="27.3333" x2="28.8341" y2="25.638" gradientUnits="userSpaceOnUse">
<stop stop-color="#3870D4"/>
<stop offset="1" stop-color="#6096F5"/>
</linearGradient>
</defs>
</svg>
