<svg width="40" height="40" viewBox="0 0 40 40" fill="none" xmlns="http://www.w3.org/2000/svg">
<path d="M35.1999 29.6002L24.5714 20.0002M15.4286 20.0002L4.80006 29.6002M4 12.0002L17.0639 21.1449C18.1217 21.8854 18.6507 22.2557 19.226 22.3991C19.7342 22.5258 20.2658 22.5258 20.774 22.3991C21.3493 22.2557 21.8783 21.8854 22.9361 21.1449L36 12.0002M11.68 32.8002H28.32C31.0083 32.8002 32.3524 32.8002 33.3792 32.277C34.2823 31.8168 35.0166 31.0825 35.4768 30.1794C36 29.1526 36 27.8084 36 25.1202V14.8802C36 12.1919 36 10.8478 35.4768 9.82104C35.0166 8.91786 34.2823 8.18356 33.3792 7.72336C32.3524 7.2002 31.0083 7.2002 28.32 7.2002H11.68C8.99175 7.2002 7.64762 7.2002 6.62085 7.72336C5.71767 8.18356 4.98336 8.91786 4.52317 9.82104C4 10.8478 4 12.1919 4 14.8802V25.1202C4 27.8084 4 29.1526 4.52317 30.1794C4.98336 31.0825 5.71767 31.8168 6.62085 32.277C7.64762 32.8002 8.99175 32.8002 11.68 32.8002Z" stroke="url(#paint0_linear_50_14)" stroke-width="1.6" stroke-linecap="round" stroke-linejoin="round"/>
<defs>
<linearGradient id="paint0_linear_50_14" x1="4" y1="32.8002" x2="37.7329" y2="30.2658" gradientUnits="userSpaceOnUse">
<stop stop-color="#3870D4"/>
<stop offset="1" stop-color="#6096F5"/>
</linearGradient>
</defs>
</svg>
