<svg xmlns="http://www.w3.org/2000/svg" version="1.1" xmlns:xlink="http://www.w3.org/1999/xlink" width="512" height="512" x="0" y="0" viewBox="0 0 512 512" style="enable-background:new 0 0 512 512" xml:space="preserve" class=""><g><path d="M130 0C74.859 0 30 44.859 30 100s44.859 100 100 100 100-44.859 100-100S185.141 0 130 0zm0 180c-44.112 0-80-35.888-80-80s35.888-80 80-80 80 35.888 80 80-35.888 80-80 80z" fill="#3870d4" opacity="1" data-original="#000000" class=""></path><path d="M130 40c-33.084 0-60 26.916-60 60s26.916 60 60 60 60-26.916 60-60-26.916-60-60-60zm0 100c-22.056 0-40-17.944-40-40s17.944-40 40-40 40 17.944 40 40-17.944 40-40 40zM382 312c-55.141 0-100 44.859-100 100s44.859 100 100 100 100-44.859 100-100-44.859-100-100-100zm0 180c-44.112 0-80-35.888-80-80s35.888-80 80-80 80 35.888 80 80-35.888 80-80 80z" fill="#3870d4" opacity="1" data-original="#000000" class=""></path><path d="M382 352c-33.084 0-60 26.916-60 60s26.916 60 60 60 60-26.916 60-60-26.916-60-60-60zm0 100c-22.056 0-40-17.944-40-40s17.944-40 40-40 40 17.944 40 40-17.944 40-40 40zM398.75 8.75a50.001 50.001 0 0 0-24.963-6.706c-17.827 0-34.434 9.582-43.338 25.007l-235.5 407.898c-13.785 23.876-5.575 54.516 18.301 68.301a50.001 50.001 0 0 0 24.963 6.706c17.827 0 34.434-9.582 43.338-25.007l235.5-407.898c13.785-23.876 5.575-54.516-18.301-68.301zm4.212 50.126a29.911 29.911 0 0 0-21.841-9.507h-.08c-10.66 0-20.61 5.75-25.95 15.01l-87.58 151.68c-2.75 4.771-1.11 10.9 3.66 13.66 1.52.88 3.25 1.34 4.99 1.34h.01c3.56 0 6.88-1.92 8.66-5L372.41 74.37c1.79-3.12 5.04-4.99 8.68-5 1.76 0 3.44.449 4.979 1.34 3.12 1.79 4.99 5.04 5 8.68 0 1.76-.449 3.44-1.34 4.98L164.23 474.949c-5.344 9.257-15.313 15.007-26.018 15.007-5.227 0-10.4-1.393-14.963-4.026-11.71-6.761-17.134-20.279-14.209-32.815a29.828 29.828 0 0 0 6.889 5.494 29.919 29.919 0 0 0 14.96 4.021h.061c10.67 0 20.609-5.75 25.96-15l87.92-152.29c2.76-4.78 1.12-10.9-3.66-13.66a9.957 9.957 0 0 0-4.99-1.34c-3.56 0-6.89 1.92-8.67 5l-87.92 152.29c-1.8 3.12-5.04 4.979-8.68 5-1.761 0-3.44-.45-4.98-1.34-3.12-1.8-4.99-5.04-5.01-8.681.01-1.639.399-3.208 1.169-4.668L347.77 37.051c5.344-9.257 15.313-15.007 26.018-15.007 5.227 0 10.4 1.393 14.963 4.026 11.707 6.76 17.132 20.273 14.211 32.806z" fill="#3870d4" opacity="1" data-original="#000000" class=""></path><path d="M265.83 253.109a9.916 9.916 0 0 0-4.66-6.069 9.957 9.957 0 0 0-4.99-1.34c-3.57 0-6.89 1.909-8.67 5-1.33 2.31-1.69 5.01-1 7.59s2.35 4.729 4.66 6.069a9.981 9.981 0 0 0 5 1.341c3.56 0 6.88-1.92 8.66-5a9.931 9.931 0 0 0 1-7.591z" fill="#3870d4" opacity="1" data-original="#000000" class=""></path></g></svg>